<svg xmlns="http://www.w3.org/2000/svg" viewBox="0 0 1200 360" fill="none" role="img" aria-label="TossSky — a scarlet wireframe vortex turning over a black field; a horizontal scan line descends through it.">
<defs>
<linearGradient id="beam" x1="0" y1="0" x2="1" y2="0"><stop offset="0%" stop-color="#FF1500" stop-opacity="0"/><stop offset="50%" stop-color="#FF5340" stop-opacity="1"/><stop offset="100%" stop-color="#FF1500" stop-opacity="0"/></linearGradient>
<radialGradient id="glow" cx="0.5" cy="0.5" r="0.5"><stop offset="0%" stop-color="#FF1500" stop-opacity="0.42"/><stop offset="100%" stop-color="#FF1500" stop-opacity="0"/></radialGradient>
<linearGradient id="strand" x1="0" y1="0" x2="0" y2="1"><stop offset="0%" stop-color="#FF5340"/><stop offset="55%" stop-color="#FF1500"/><stop offset="100%" stop-color="#7A0A00"/></linearGradient>
<pattern id="grid" width="40" height="40" patternUnits="userSpaceOnUse"><path d="M40 0 H0 V40" fill="none" stroke="#FFFFFF" stroke-opacity="0.04" stroke-width="1"/></pattern>
<linearGradient id="vignette" x1="0" y1="0" x2="1" y2="0"><stop offset="0%" stop-color="#000000" stop-opacity="0.96"/><stop offset="50%" stop-color="#000000" stop-opacity="0.0"/></linearGradient>
</defs>
<rect width="1200" height="360" fill="#000000"/>
<rect width="1200" height="360" fill="url(#grid)"/>
<g transform="translate(880.0 0)">
<animateTransform attributeName="transform" type="rotate" additive="sum" values="-1.6 0 180.0; 1.6 0 180.0; -1.6 0 180.0" dur="11s" repeatCount="indefinite" calcMode="spline" keyTimes="0;0.5;1" keySplines="0.45 0 0.55 1;0.45 0 0.55 1"/>
<g transform="translate(-880.0 0)">
<circle cx="880.0" cy="216" r="150" fill="url(#glow)"><animate attributeName="opacity" values="0.55;1;0.55" dur="6s" repeatCount="indefinite"/></circle>
<ellipse cx="880.0" cy="28.0" rx="230.0" ry="46.0" fill="none" stroke="#FFFFFF" stroke-opacity="0.400" stroke-width="1.60"><animate attributeName="stroke-opacity" values="0.400;0.520;0.400" dur="6s" begin="0.00s" repeatCount="indefinite"/></ellipse>
<ellipse cx="880.0" cy="47.0" rx="214.3" ry="42.9" fill="none" stroke="#FFFFFF" stroke-opacity="0.381" stroke-width="1.56"><animate attributeName="stroke-opacity" values="0.381;0.501;0.381" dur="6s" begin="0.07s" repeatCount="indefinite"/></ellipse>
<ellipse cx="880.0" cy="66.0" rx="198.9" ry="39.8" fill="none" stroke="#FFFFFF" stroke-opacity="0.363" stroke-width="1.52"><animate attributeName="stroke-opacity" values="0.363;0.483;0.363" dur="6s" begin="0.15s" repeatCount="indefinite"/></ellipse>
<ellipse cx="880.0" cy="85.0" rx="184.0" ry="36.8" fill="none" stroke="#FFFFFF" stroke-opacity="0.344" stroke-width="1.49"><animate attributeName="stroke-opacity" values="0.344;0.464;0.344" dur="6s" begin="0.22s" repeatCount="indefinite"/></ellipse>
<ellipse cx="880.0" cy="104.0" rx="169.5" ry="33.9" fill="none" stroke="#FFFFFF" stroke-opacity="0.325" stroke-width="1.45"><animate attributeName="stroke-opacity" values="0.325;0.445;0.325" dur="6s" begin="0.30s" repeatCount="indefinite"/></ellipse>
<ellipse cx="880.0" cy="123.0" rx="155.5" ry="31.1" fill="none" stroke="#FFFFFF" stroke-opacity="0.306" stroke-width="1.41"><animate attributeName="stroke-opacity" values="0.306;0.426;0.306" dur="6s" begin="0.38s" repeatCount="indefinite"/></ellipse>
<ellipse cx="880.0" cy="142.0" rx="142.1" ry="28.4" fill="none" stroke="#FFFFFF" stroke-opacity="0.287" stroke-width="1.38"><animate attributeName="stroke-opacity" values="0.287;0.407;0.287" dur="6s" begin="0.45s" repeatCount="indefinite"/></ellipse>
<ellipse cx="880.0" cy="161.0" rx="129.3" ry="25.9" fill="none" stroke="#FFFFFF" stroke-opacity="0.269" stroke-width="1.34"><animate attributeName="stroke-opacity" values="0.269;0.389;0.269" dur="6s" begin="0.53s" repeatCount="indefinite"/></ellipse>
<ellipse cx="880.0" cy="180.0" rx="117.1" ry="23.4" fill="none" stroke="#FFFFFF" stroke-opacity="0.250" stroke-width="1.30"><animate attributeName="stroke-opacity" values="0.250;0.370;0.250" dur="6s" begin="0.60s" repeatCount="indefinite"/></ellipse>
<ellipse cx="880.0" cy="199.0" rx="105.6" ry="21.1" fill="none" stroke="#FFFFFF" stroke-opacity="0.231" stroke-width="1.26"><animate attributeName="stroke-opacity" values="0.231;0.351;0.231" dur="6s" begin="0.67s" repeatCount="indefinite"/></ellipse>
<ellipse cx="880.0" cy="218.0" rx="94.9" ry="19.0" fill="none" stroke="#FFFFFF" stroke-opacity="0.212" stroke-width="1.23"><animate attributeName="stroke-opacity" values="0.212;0.333;0.212" dur="6s" begin="0.75s" repeatCount="indefinite"/></ellipse>
<ellipse cx="880.0" cy="237.0" rx="85.1" ry="17.0" fill="none" stroke="#FFFFFF" stroke-opacity="0.194" stroke-width="1.19"><animate attributeName="stroke-opacity" values="0.194;0.314;0.194" dur="6s" begin="0.82s" repeatCount="indefinite"/></ellipse>
<ellipse cx="880.0" cy="256.0" rx="76.2" ry="15.2" fill="none" stroke="#FFFFFF" stroke-opacity="0.175" stroke-width="1.15"><animate attributeName="stroke-opacity" values="0.175;0.295;0.175" dur="6s" begin="0.90s" repeatCount="indefinite"/></ellipse>
<ellipse cx="880.0" cy="275.0" rx="68.5" ry="13.7" fill="none" stroke="#FFFFFF" stroke-opacity="0.156" stroke-width="1.11"><animate attributeName="stroke-opacity" values="0.156;0.276;0.156" dur="6s" begin="0.97s" repeatCount="indefinite"/></ellipse>
<ellipse cx="880.0" cy="294.0" rx="62.0" ry="12.4" fill="none" stroke="#FFFFFF" stroke-opacity="0.138" stroke-width="1.07"><animate attributeName="stroke-opacity" values="0.138;0.258;0.138" dur="6s" begin="1.05s" repeatCount="indefinite"/></ellipse>
<ellipse cx="880.0" cy="313.0" rx="57.2" ry="11.4" fill="none" stroke="#FFFFFF" stroke-opacity="0.119" stroke-width="1.04"><animate attributeName="stroke-opacity" values="0.119;0.239;0.119" dur="6s" begin="1.12s" repeatCount="indefinite"/></ellipse>
<ellipse cx="880.0" cy="332.0" rx="55.2" ry="11.0" fill="none" stroke="#FFFFFF" stroke-opacity="0.100" stroke-width="1.00"><animate attributeName="stroke-opacity" values="0.100;0.220;0.100" dur="6s" begin="1.20s" repeatCount="indefinite"/></ellipse>
<polyline points="1110.0,28.0 1071.9,66.1 1000.1,97.7 914.1,121.2 834.0,136.6 775.5,146.1 747.7,152.4 751.2,158.7 780.1,167.8 823.9,181.1 870.7,199.1 910.2,221.1 936.0,245.6 945.7,271.2 941.1,296.2 926.0,319.8 905.1,341.8" fill="none" stroke="url(#strand)" stroke-width="2.2" stroke-linecap="round" stroke-linejoin="round" opacity="0.95"/>
<polyline points="1023.4,64.0 925.0,88.9 830.9,104.6 759.9,112.9 723.8,117.1 724.8,121.0 757.0,127.8 808.6,139.4 865.6,156.8 915.0,179.1 948.1,204.8 961.1,231.8 955.4,258.3 936.0,282.9 909.5,304.9 882.0,324.4 857.2,342.1" fill="none" stroke="#FFFFFF" stroke-opacity="0.10" stroke-width="1" stroke-linejoin="round"><animate attributeName="stroke-opacity" values="0.05;0.16;0.05" dur="7s" begin="0.50s" repeatCount="indefinite"/></polyline>
<polyline points="828.8,72.8 744.3,80.2 698.7,82.4 696.1,83.6 731.2,87.8 790.9,97.5 858.9,113.9 919.8,136.4 961.9,163.3 979.8,192.0 974.2,220.4 950.8,246.4 918.0,269.2 884.1,288.7 855.8,305.4 836.5,320.4 826.5,334.7" fill="none" stroke="#FFFFFF" stroke-opacity="0.10" stroke-width="1" stroke-linejoin="round"><animate attributeName="stroke-opacity" values="0.05;0.16;0.05" dur="7s" begin="1.00s" repeatCount="indefinite"/></polyline>
<polyline points="672.8,48.0 665.8,46.5 703.0,47.8 770.8,55.4 850.7,70.6 924.1,93.2 976.8,121.2 1001.0,151.9 996.5,182.4 969.4,210.3 929.4,234.2 887.3,254.0 852.0,270.2 829.1,284.2 820.3,297.3 823.8,310.8 836.1,325.3" fill="none" stroke="#FFFFFF" stroke-opacity="0.10" stroke-width="1" stroke-linejoin="round"><animate attributeName="stroke-opacity" values="0.05;0.16;0.05" dur="7s" begin="1.50s" repeatCount="indefinite"/></polyline>
<polyline points="672.8,8.0 748.5,13.2 840.6,27.0 927.7,49.5 992.2,78.6 1024.1,111.3 1021.7,144.2 991.1,174.2 943.4,199.7 891.7,220.0 847.4,235.8 818.2,248.7 807.1,260.5 812.4,272.8 829.7,286.7 853.4,302.9 878.8,321.0" fill="none" stroke="#FFFFFF" stroke-opacity="0.10" stroke-width="1" stroke-linejoin="round"><animate attributeName="stroke-opacity" values="0.05;0.16;0.05" dur="7s" begin="2.00s" repeatCount="indefinite"/></polyline>
<polyline points="828.8,-16.8 930.3,5.3 1007.9,35.5 1048.7,70.3 1049.3,105.7 1015.6,138.2 960.0,165.5 897.5,186.6 842.6,202.2 805.2,213.9 790.0,224.0 795.7,234.6 817.1,247.4 846.6,263.0 877.0,281.6 903.0,302.5 922.4,324.9" fill="none" stroke="#FFFFFF" stroke-opacity="0.10" stroke-width="1" stroke-linejoin="round"><animate attributeName="stroke-opacity" values="0.05;0.16;0.05" dur="7s" begin="2.50s" repeatCount="indefinite"/></polyline>
<polyline points="1023.4,-8.0 1074.2,28.9 1078.9,67.0 1042.6,102.2 978.9,131.5 905.0,153.7 838.0,169.2 790.8,179.7 769.9,188.0 775.0,196.6 800.3,207.7 836.7,222.4 874.4,240.8 905.9,262.3 926.6,285.8 935.3,310.1 934.1,334.2" fill="none" stroke="#FFFFFF" stroke-opacity="0.10" stroke-width="1" stroke-linejoin="round"><animate attributeName="stroke-opacity" values="0.05;0.16;0.05" dur="7s" begin="3.00s" repeatCount="indefinite"/></polyline>
<rect x="830.0" y="132.6" width="8" height="8" rx="1.5" transform="rotate(45 834.0 136.6)" fill="#FF1500"><animate attributeName="opacity" values="0;1;0" dur="4.5s" begin="0.0s" repeatCount="indefinite"/></rect>
<rect x="819.9" y="177.1" width="8" height="8" rx="1.5" transform="rotate(45 823.9 181.1)" fill="#FF1500"><animate attributeName="opacity" values="0;1;0" dur="4.5s" begin="1.4s" repeatCount="indefinite"/></rect>
<rect x="941.7" y="267.2" width="8" height="8" rx="1.5" transform="rotate(45 945.7 271.2)" fill="#FF1500"><animate attributeName="opacity" values="0;1;0" dur="4.5s" begin="2.8s" repeatCount="indefinite"/></rect>
</g>
</g>
<g><rect x="630" y="-4" width="500" height="40" fill="url(#glow)" opacity="0.5"/><rect x="630" y="14" width="500" height="2" fill="url(#beam)"/><animateTransform attributeName="transform" type="translate" values="0 18; 0 322; 0 18" dur="9s" repeatCount="indefinite" calcMode="spline" keyTimes="0;0.5;1" keySplines="0.45 0 0.55 1;0.45 0 0.55 1"/></g>
<rect width="1200" height="360" fill="url(#vignette)"/>
<line x1="0" y1="1" x2="1200" y2="1" stroke="#FFFFFF" stroke-opacity="0.10"/>
<line x1="0" y1="359" x2="1200" y2="359" stroke="#FFFFFF" stroke-opacity="0.10"/>
<circle cx="68" cy="103" r="5" fill="#FF1500"><animate attributeName="opacity" values="1;0.3;1" dur="2.2s" repeatCount="indefinite"/></circle>
<text x="86" y="108" font-family="ui-monospace, 'SF Mono', 'Cascadia Code', 'JetBrains Mono', monospace" font-size="14" letter-spacing="6" fill="#8A8A8E">SECURITY · BLOCKCHAIN · SYSTEMS</text>
<text x="62" y="196" font-family="ui-sans-serif, system-ui, -apple-system, 'Segoe UI', Roboto, sans-serif" font-size="92" font-weight="800" letter-spacing="-3.5" fill="#FAFAFA">TossSky</text>
<text x="66" y="240" font-family="ui-monospace, 'SF Mono', 'Cascadia Code', 'JetBrains Mono', monospace" font-size="16" letter-spacing="0.4" fill="#FF1500">scan first. trust later.</text>
</svg>
